<svg version="1.1" id="Layer_1" xmlns="http://www.w3.org/2000/svg" xmlns:xlink="http://www.w3.org/1999/xlink" x="0px" y="0px"
	 width="100%" viewBox="0 0 500 500" enable-background="new 0 0 500 500" xml:space="preserve">
<path fill="#191624" opacity="1.000000" stroke="none" 
	d="
M236.000000,501.000000 
	C157.333359,501.000000 79.166702,501.000000 1.000042,501.000000 
	C1.000028,334.333405 1.000028,167.666779 1.000014,1.000131 
	C167.666565,1.000088 334.333130,1.000088 500.999756,1.000044 
	C500.999847,167.666519 500.999847,334.333038 500.999939,500.999786 
	C412.833344,501.000000 324.666656,501.000000 236.000000,501.000000 
M295.299744,220.102020 
	C295.004730,220.393356 294.709686,220.684677 294.228485,221.084854 
	C294.228485,221.084854 293.974091,221.428070 293.337555,221.847290 
	C289.150330,226.282120 288.727692,231.333603 291.033722,236.741959 
	C291.225281,237.191284 292.292450,237.267258 293.306976,237.842941 
	C293.891174,238.102005 294.475403,238.361053 294.060730,237.956512 
	C293.692474,238.574982 293.324219,239.193451 292.955994,239.811920 
	C293.640411,239.890076 294.324829,239.968231 295.004944,239.996796 
	C295.004944,239.996796 294.965637,240.027252 293.993347,240.354721 
	C294.166870,241.884796 294.340424,243.414856 293.934570,245.111633 
	C292.942078,246.569244 291.949585,248.026840 290.825256,250.206589 
	C290.802551,250.450363 290.779816,250.694138 290.241577,251.503876 
	C289.900299,256.880219 289.558990,262.256592 289.198730,267.932037 
	C288.285645,267.972626 286.156891,268.067200 283.274597,268.007935 
	C282.506439,268.038422 281.738312,268.068909 280.763733,267.328979 
	C284.578796,253.807068 287.144165,240.135132 285.081329,226.021469 
	C284.360229,221.088028 281.941345,219.657379 277.470093,220.962036 
	C270.747620,222.923553 263.776917,232.310303 264.031006,239.202835 
	C264.153595,242.526611 265.512299,244.957382 268.408478,245.716675 
	C267.852264,242.500366 266.691986,239.584656 267.011292,236.841171 
	C267.659668,231.270233 271.111877,227.141037 275.703735,224.067581 
	C280.224152,221.041931 281.850525,221.607101 282.466980,227.034393 
	C283.970032,240.267548 282.130737,253.225555 278.121307,265.856293 
	C277.696045,267.195953 275.835052,268.296875 274.398956,269.046600 
	C272.350616,270.115967 270.079346,270.758301 266.965027,271.938599 
	C271.139923,275.343475 274.008118,274.792450 277.012268,272.673920 
	C278.558441,271.583588 280.304016,270.775940 282.653534,269.990875 
	C283.115967,269.911713 283.578400,269.832581 284.841858,269.845520 
	C288.294006,270.134644 291.858643,269.978821 295.172028,270.816681 
	C300.201752,272.088501 305.056946,274.050354 310.872589,275.987030 
	C317.043854,274.736877 323.215149,273.486725 330.052185,272.086365 
	C334.837219,267.581848 340.161102,263.514587 344.264679,258.457123 
	C348.919220,252.720718 348.440552,252.345322 355.783112,254.935669 
	C356.087189,255.042953 356.575897,254.627090 357.579803,254.197983 
	C355.597076,252.968948 353.965881,252.082855 352.480957,250.996735 
	C351.343750,250.164948 349.667480,249.203629 349.477692,248.087860 
	C348.470367,242.166107 352.606781,234.223587 358.019928,231.162842 
	C359.603241,230.267578 361.334229,229.633453 363.814056,228.942093 
	C365.422760,230.210587 367.784424,231.173431 368.454132,232.823151 
	C369.338165,235.000900 369.016754,237.718216 368.998383,240.201981 
	C368.955444,246.004333 368.481476,251.820663 368.766907,257.602478 
	C368.970795,261.732849 371.279205,264.424622 376.703766,263.748322 
	C380.830627,260.165863 384.957520,256.583405 388.898834,253.162003 
	C389.892914,256.174896 388.724457,258.821472 385.850189,261.540436 
	C381.408875,265.741760 377.350433,270.399475 373.556732,275.201111 
	C372.475403,276.569733 371.965332,279.834595 372.832214,280.915161 
	C373.815033,282.140350 376.723236,282.458771 378.646332,282.173523 
	C384.664581,281.280884 387.483368,276.894684 389.191956,271.508911 
	C391.346893,264.716125 395.471008,257.516724 399.780396,252.759995 
	C399.859100,252.673111 399.790253,252.452576 399.790253,251.575287 
	C397.212189,252.884735 394.911163,254.053482 392.385590,255.336258 
	C392.185364,249.395828 394.491699,243.816666 391.951202,238.166733 
	C390.113983,240.660095 389.038940,243.320099 387.922943,245.962814 
	C385.251221,252.289520 382.243561,258.374451 375.243622,262.019043 
	C370.603455,260.799652 371.214417,256.815857 371.197083,253.571701 
	C371.163605,247.303177 371.991699,241.020706 371.794800,234.765045 
	C371.598358,228.523300 369.087524,226.793488 362.060455,227.482010 
	C358.403320,229.225754 354.746185,230.969513 350.906586,232.800262 
	C349.070801,225.966461 345.288086,220.889648 337.248871,218.894257 
	C331.906158,218.053406 326.547943,217.101135 321.464661,220.996780 
	C321.464661,220.996780 321.060303,220.981262 320.258118,220.899857 
	C318.072876,221.511108 315.887634,222.122345 313.423950,222.811493 
	C310.008148,218.854630 305.637543,216.666397 299.333893,218.110977 
	C298.191864,218.728790 297.049805,219.346603 295.299744,220.102020 
M137.977921,135.025986 
	C131.694565,134.734726 125.411201,134.443466 118.404922,134.066864 
	C117.223373,134.869431 116.041817,135.672012 114.156540,136.765945 
	C110.298744,137.425720 106.423370,137.998718 102.589333,138.775726 
	C100.025848,139.295258 97.534744,140.161819 94.986565,140.769623 
	C92.049416,141.470200 88.913567,141.648148 86.176132,142.796844 
	C82.783585,144.220444 79.848770,146.718414 76.476013,148.208588 
	C64.593918,153.458466 55.621632,162.240097 46.683746,172.006668 
	C45.764511,173.259949 44.845272,174.513214 43.369011,176.164444 
	C43.028107,176.748520 42.687199,177.332596 41.882286,178.121094 
	C41.578117,178.701828 41.273952,179.282547 40.499439,180.281281 
	C40.216839,180.840363 39.934235,181.399460 39.130138,182.359543 
	C36.655830,187.286606 34.181519,192.213669 31.707207,197.140747 
	C32.112392,197.332855 32.517574,197.524979 32.922756,197.717102 
	C35.393021,193.064926 37.863281,188.412766 40.674629,183.118240 
	C41.630547,185.051575 42.131367,186.064468 42.270752,187.722885 
	C39.165508,192.745117 35.472630,197.504105 33.079895,202.845520 
	C28.399055,213.294769 27.314651,224.504166 27.274019,236.140244 
	C26.638212,235.400055 26.002405,234.659851 25.366596,233.919647 
	C24.990927,234.044708 24.615257,234.169769 24.239588,234.294815 
	C25.154320,239.556305 26.069052,244.817795 26.873541,250.637833 
	C27.556200,251.922455 28.238859,253.207062 28.921520,254.491684 
	C28.659958,254.455780 28.398396,254.419876 28.136833,254.383972 
	C28.445816,258.026306 28.754799,261.668610 29.050137,265.150085 
	C31.094810,265.512909 32.532696,265.768066 34.131298,266.746552 
	C40.591904,283.222656 49.230949,298.220093 63.954590,308.753815 
	C70.669685,313.557983 77.409409,318.670837 84.862808,322.040344 
	C116.400169,336.297791 147.378860,334.182678 176.694687,316.006836 
	C195.185867,304.542267 207.872574,287.826477 215.342499,267.283417 
	C215.843231,265.906311 216.632309,264.634033 217.685760,263.900818 
	C220.123993,266.141266 222.562225,268.381714 225.000458,270.622131 
	C223.672241,266.687103 220.871460,263.864960 220.142410,260.582642 
	C218.530106,253.323822 222.475708,247.845749 228.481049,244.536514 
	C234.171585,241.400772 240.494034,239.411774 246.308853,237.013229 
	C244.329666,236.690063 241.807144,236.278168 238.793854,235.327148 
	C236.119705,233.970978 233.436920,232.174362 235.273453,228.926590 
	C235.895630,227.826294 239.044830,228.154953 241.773987,228.017059 
	C245.323654,228.092728 249.211853,229.529526 251.993546,225.781265 
	C248.574280,222.346008 246.909180,222.012741 239.278244,223.041275 
	C234.129318,226.294174 231.235031,220.975082 227.329437,219.500946 
	C227.058578,219.899292 226.787704,220.297653 226.516846,220.695999 
	C228.743256,222.464890 230.969666,224.233780 233.201279,226.006821 
	C230.973328,232.492783 231.618942,233.962799 238.023209,237.713562 
	C231.946548,241.494797 225.869873,245.276047 220.000565,248.092377 
	C220.557968,239.642700 221.370087,231.200287 221.611191,222.741592 
	C221.946335,210.983047 220.129364,199.550766 214.770172,188.911255 
	C210.198975,179.836105 203.661972,172.637863 196.063538,165.688065 
	C180.664444,151.603470 163.466736,141.933640 143.185959,137.355713 
	C141.729599,136.616013 140.273239,135.876297 137.977921,135.025986 
M248.041107,262.725342 
	C244.586899,264.454132 241.132690,266.182922 237.523071,267.989532 
	C243.910675,268.994202 262.223358,257.431976 264.031158,251.042953 
	C258.696350,254.934998 253.661636,258.608093 248.041107,262.725342 
z"/>
<path fill="#A5A5A5" opacity="1.000000" stroke="none" 
	d="
M27.939644,235.883575 
	C27.314651,224.504166 28.399055,213.294769 33.079895,202.845520 
	C35.472630,197.504105 39.165508,192.745117 42.717396,187.240417 
	C43.366386,182.490997 44.652588,178.748993 47.746731,175.581818 
	C48.297096,175.018463 47.407394,173.048233 47.182652,171.727646 
	C55.621632,162.240097 64.593918,153.458466 76.476013,148.208588 
	C79.848770,146.718414 82.783585,144.220444 86.176132,142.796844 
	C88.913567,141.648148 92.049416,141.470200 94.986565,140.769623 
	C97.534744,140.161819 100.025848,139.295258 102.589333,138.775726 
	C106.423370,137.998718 110.298744,137.425720 114.836525,136.864014 
	C124.692337,137.280411 133.868164,137.598724 143.043991,137.917053 
	C163.466736,141.933640 180.664444,151.603470 196.063538,165.688065 
	C203.661972,172.637863 210.198975,179.836105 214.770172,188.911255 
	C220.129364,199.550766 221.946335,210.983047 221.611191,222.741592 
	C221.370087,231.200287 220.557968,239.642700 219.903336,248.861496 
	C218.545029,250.424805 217.283951,251.219009 215.924225,252.247665 
	C215.852249,252.649567 215.878952,252.817032 215.940735,252.981476 
	C215.975800,252.978455 215.939133,252.918350 215.611633,253.009369 
	C213.401611,254.984634 211.519089,256.868927 209.081223,259.309052 
	C209.081223,253.192169 209.361877,248.202255 208.952057,243.269684 
	C208.771713,241.099182 207.186569,239.045395 206.239227,236.938629 
	C204.138596,238.023361 201.705826,238.743439 200.017593,240.281021 
	C197.668350,242.420624 195.876755,245.172516 193.161407,248.502441 
	C193.014313,246.363754 192.900375,245.435715 192.895157,244.507080 
	C192.870819,240.181778 193.124405,235.834808 192.751801,231.541306 
	C192.598755,229.777710 191.414597,227.035126 190.169922,226.699066 
	C188.530441,226.256378 185.814377,227.208435 184.548264,228.516357 
	C181.926453,231.224701 179.625870,234.381271 177.798096,237.687881 
	C175.247009,242.303055 173.249268,247.224106 171.007507,252.007385 
	C171.000275,252.000488 170.983612,251.989395 170.890656,251.528381 
	C170.376892,242.134735 170.243988,233.175323 169.416077,224.280594 
	C168.989731,219.699890 165.606125,218.045975 161.024353,218.788864 
	C152.374939,220.191315 142.103134,230.007538 140.489502,238.566956 
	C139.289139,244.934143 144.660416,251.395477 151.924973,251.631393 
	C150.761383,250.800507 150.019943,250.219849 149.229996,249.715073 
	C142.548004,245.445251 140.783875,239.560989 145.533768,233.271332 
	C148.840408,228.892731 153.271317,225.048294 157.910110,222.072006 
	C163.437225,218.525757 165.832275,220.006027 167.062805,226.599457 
	C169.674896,240.595352 167.164490,254.418076 165.478439,268.265839 
	C165.235229,270.263397 165.249237,272.292236 165.144211,274.306610 
	C165.681290,274.451294 166.218353,274.595978 166.755432,274.740662 
	C167.540344,272.959503 168.393555,271.204895 169.099075,269.392853 
	C173.609283,257.808899 177.928650,246.146423 182.703934,234.673416 
	C183.704605,232.269257 186.345123,230.547638 188.229965,228.511505 
	C188.693130,228.767502 189.156281,229.023514 189.619446,229.279510 
	C189.619446,238.146576 189.619446,247.013626 189.619446,255.880676 
	C190.074097,256.073944 190.528748,256.267212 190.983383,256.460480 
	C195.431259,250.573685 199.879135,244.686905 204.326996,238.800125 
	C204.842178,239.000626 205.357346,239.201126 205.872528,239.401627 
	C205.872528,243.450684 205.937119,247.501083 205.852951,251.548386 
	C205.780167,255.047653 203.432434,259.871704 207.651215,261.390808 
	C211.950516,262.938934 213.761261,257.952179 216.266785,255.183319 
	C216.789688,258.026642 217.038467,260.669830 217.287262,263.313019 
	C216.632309,264.634033 215.843231,265.906311 215.342499,267.283417 
	C207.872574,287.826477 195.185867,304.542267 176.694687,316.006836 
	C147.378860,334.182678 116.400169,336.297791 84.862808,322.040344 
	C77.409409,318.670837 70.669685,313.557983 63.954590,308.753815 
	C49.230949,298.220093 40.591904,283.222656 34.078026,265.986023 
	C32.415337,258.561554 30.805920,251.897614 28.924744,244.905151 
	C28.415205,241.678940 28.177425,238.781265 27.939644,235.883575 
M127.060455,247.593063 
	C127.253258,247.861084 127.502869,248.056549 127.957848,248.629028 
	C128.418472,248.749603 128.879089,248.870193 129.339722,248.990768 
	C128.999023,248.553925 128.658325,248.117096 128.052231,247.283722 
	C127.854370,247.026230 127.611214,246.822906 127.070023,246.267273 
	C126.853058,246.030960 126.607590,245.829361 126.113197,245.230743 
	C125.905853,244.977966 125.658485,244.773651 125.290085,243.977753 
	C125.260124,243.335510 125.230164,242.693253 125.681007,241.610794 
	C126.132591,240.387299 126.584183,239.163803 127.033783,237.619949 
	C127.033783,237.619949 127.003448,237.300217 127.604500,236.879837 
	C128.391937,234.578049 129.179382,232.276245 130.198029,229.930313 
	C130.198029,229.930313 130.248566,229.653000 130.248566,229.653000 
	C130.248566,229.653000 130.018982,230.028381 129.307190,229.995605 
	C127.871887,228.988708 126.436584,227.981812 125.002701,226.175018 
	C124.982857,225.106323 124.963013,224.037628 124.983360,222.973160 
	C124.983360,222.973160 124.963898,222.937714 125.657883,223.184372 
	C129.062195,229.264359 130.628601,229.407852 134.219437,223.336914 
	C134.219437,221.813995 134.219437,220.291061 134.219437,218.768143 
	C134.487976,218.977524 134.756516,219.186905 135.025055,219.396286 
	C136.703018,216.250763 138.380981,213.105225 140.313034,209.400879 
	C140.540451,208.618332 140.767883,207.835770 141.427628,206.653244 
	C141.602432,206.103668 141.777237,205.554092 142.503723,204.540024 
	C143.384659,202.198257 143.863785,199.583511 145.230423,197.571686 
	C148.051926,193.418198 150.192413,189.248383 149.607574,183.937088 
	C151.988495,182.820847 156.520020,183.195923 153.347473,178.238770 
	C153.016449,177.721558 154.415878,176.096863 155.102310,175.490921 
	C155.421677,175.793152 155.741043,176.095383 156.060410,176.397614 
	C156.168503,176.281540 156.276596,176.165451 156.384674,176.049362 
	C155.918457,175.703735 155.452225,175.358109 155.084763,174.368683 
	C155.741974,173.459183 156.382492,172.537048 157.059784,171.642746 
	C158.577271,169.639053 160.113037,167.649216 161.641357,165.653717 
	C160.762299,165.770569 159.883255,165.887421 159.000000,166.000000 
	C159.000000,166.000000 158.995728,165.997208 158.985474,165.241791 
	C158.517776,163.888687 158.050064,162.535583 157.582367,161.182480 
	C156.972137,161.124435 156.361893,161.066376 155.751663,161.008331 
	C152.807358,168.310654 149.863068,175.612991 146.438995,183.195480 
	C145.955368,183.465912 145.471756,183.736359 145.052185,183.232941 
	C145.297501,179.908066 147.833649,176.114609 143.352554,173.275848 
	C144.459488,172.699585 145.566437,172.123322 147.735306,170.994202 
	C148.307877,169.073410 149.425659,165.668518 150.304382,162.202972 
	C150.647385,160.850174 150.452682,159.361038 150.502899,157.933975 
	C148.994797,157.955688 147.486694,157.977402 145.982773,157.299637 
	C145.272720,156.724380 144.085571,155.547150 143.929504,155.670853 
	C142.856171,156.521545 141.014923,157.990921 141.237030,158.621002 
	C142.356842,161.797806 140.276993,163.526794 138.718613,165.500824 
	C137.284210,167.317810 137.840622,168.036987 139.918213,168.718185 
	C139.920959,169.091354 139.923691,169.464539 139.257889,170.013611 
	C137.914124,171.125458 136.570343,172.237305 136.116409,172.612900 
	C136.911911,175.739090 137.723038,177.876923 137.946609,180.074524 
	C138.217926,182.741882 137.993393,185.459671 137.960205,188.547638 
	C137.960205,188.547638 137.958481,188.940292 137.929260,189.641251 
	C137.563171,190.722321 137.197083,191.803406 136.147858,192.974930 
	C132.432861,193.815948 133.457947,196.438217 133.942093,198.904099 
	C133.942093,198.904099 133.906250,198.925369 133.563065,198.916672 
	C133.563065,198.916672 133.221664,198.880524 132.572159,198.982803 
	C132.363846,200.693619 132.155518,202.404434 131.945526,204.483871 
	C131.945526,204.483871 131.970383,204.851669 131.237778,204.914291 
	C125.071228,210.616562 122.334610,217.819901 121.515678,225.781448 
	C120.769203,226.125305 119.441071,226.401459 119.391602,226.826447 
	C119.270988,227.862579 119.742882,228.967682 119.935440,230.375183 
	C119.935440,230.375183 119.902809,230.707397 119.219307,230.731155 
	C118.485405,231.148453 117.751503,231.565750 116.640404,232.469116 
	C116.083298,233.286407 115.526192,234.103714 114.360245,235.286026 
	C113.589897,237.200836 112.819557,239.115646 111.726418,241.633377 
	C109.308456,241.843948 106.890503,242.054520 104.472542,242.265076 
	C104.399208,242.530273 104.325874,242.795486 104.252541,243.060684 
	C105.941231,243.692780 107.629929,244.324890 109.646072,245.079559 
	C108.430077,248.801117 107.250969,252.409744 105.744888,256.485870 
	C105.429329,256.958252 105.113770,257.430664 104.007744,257.893127 
	C101.826454,258.593964 99.645164,259.294800 96.831619,260.141449 
	C95.458374,262.308594 94.085129,264.475739 92.505249,266.968964 
	C95.685600,265.724152 97.868973,264.869537 99.999481,264.671112 
	C99.989403,265.109833 99.979324,265.548553 100.001389,265.992737 
	C100.001389,265.992737 99.970451,265.974915 99.378746,266.239258 
	C98.915253,267.162048 98.451752,268.084839 97.781593,269.382568 
	C97.614601,269.621979 97.400848,269.807495 96.668945,269.520569 
	C93.286903,268.876160 94.576309,270.798828 95.238045,272.223633 
	C96.446060,274.824677 97.750633,277.380890 98.959381,279.842651 
	C101.562256,279.842651 104.750778,280.433838 107.583725,279.683167 
	C110.669670,278.865448 113.425728,276.802765 116.685165,274.919647 
	C116.640038,274.498596 116.594910,274.077515 116.549789,273.656464 
	C116.295349,274.039948 116.040901,274.423401 115.096970,274.851654 
	C114.409149,274.910217 113.721336,274.968781 112.730492,274.516693 
	C113.139130,272.314026 113.547760,270.111359 114.372841,267.503326 
	C115.170944,266.944275 116.587616,266.442047 116.645195,265.815002 
	C116.788498,264.254639 116.312714,262.637451 116.045288,260.985657 
	C116.045288,260.985657 116.062408,261.052124 116.669678,260.836090 
	C116.804199,260.232300 116.938721,259.628540 117.001366,259.029449 
	C117.001366,259.029449 117.069206,259.054443 117.720619,258.819794 
	C118.531029,256.884277 119.341431,254.948746 120.683693,252.609390 
	C122.057739,250.141708 123.431786,247.674011 125.047829,245.630096 
	C125.252380,245.901077 125.518532,246.080902 126.099693,246.576233 
	C126.299751,246.835754 126.550011,247.030884 127.060455,247.593063 
M65.476448,183.135529 
	C65.511520,183.497086 65.546593,183.858643 65.581657,184.220200 
	C65.794151,183.872391 66.006645,183.524582 66.557861,182.865173 
	C66.528992,182.497818 66.500122,182.130478 66.471245,181.763123 
	C66.241119,182.110092 66.010994,182.457062 65.476448,183.135529 
M108.080299,198.919983 
	C107.144058,200.314041 106.207809,201.708084 105.038399,203.449326 
	C108.467865,203.283081 111.209396,203.150177 114.100090,203.765564 
	C115.241600,204.882187 116.749611,207.122025 117.451965,206.892822 
	C119.168488,206.332733 120.512459,204.630875 122.736382,202.781586 
	C119.941925,202.196701 118.468773,201.888367 116.453918,201.466644 
	C117.433243,199.679245 118.165504,198.342743 119.278862,196.310715 
	C119.821922,198.321243 120.115837,199.409393 120.409752,200.497528 
	C120.925301,200.316055 121.440849,200.134567 121.956398,199.953094 
	C121.442284,198.537689 121.333611,196.475357 120.327591,195.844910 
	C118.380760,194.624878 113.348335,198.337509 112.159134,200.950485 
	C111.151726,200.346130 110.144318,199.741791 109.651588,198.972336 
	C109.873550,198.522751 110.095520,198.073166 110.317474,197.623550 
	C109.797958,198.009460 109.278442,198.395370 108.080299,198.919983 
M94.546181,206.969650 
	C95.688889,205.982086 96.831596,204.994522 98.154900,204.692673 
	C98.709625,205.480927 99.264351,206.269165 99.884232,207.149994 
	C101.576332,204.430862 102.963547,202.201660 104.496201,199.738754 
	C104.141533,198.909988 103.488396,197.383804 102.521614,195.124725 
	C101.732414,197.244766 101.229111,198.596832 100.318535,199.499481 
	C98.877480,198.333618 97.436432,197.167740 95.356979,195.785461 
	C90.937859,195.918335 88.776871,199.944702 89.459358,206.916122 
	C90.909752,206.916122 92.372505,206.916122 94.546181,206.969650 
M95.977867,287.493896 
	C95.819984,287.255432 95.662094,287.016937 95.504211,286.778473 
	C95.317665,287.159668 95.131126,287.540833 94.204552,288.026520 
	C91.996010,287.512207 89.787468,286.997894 87.711487,286.514435 
	C85.582680,289.501953 86.152435,291.407959 89.182518,292.575775 
	C93.046768,294.065155 96.902283,295.578491 100.785637,297.016541 
	C103.807442,298.135559 105.586975,297.269836 105.641663,293.881653 
	C102.368584,291.860626 99.202492,289.905670 95.977867,287.493896 
M107.336571,309.855896 
	C89.973106,307.774841 71.758743,307.405884 62.985222,287.784912 
	C62.161446,294.611145 66.057411,298.947235 71.036560,302.187592 
	C83.288033,310.160706 96.944237,312.985199 111.405457,311.780853 
	C113.979408,311.566467 116.452263,310.138153 118.971802,309.270386 
	C118.843933,308.863342 118.716064,308.456299 118.588196,308.049255 
	C115.129288,308.648560 111.670380,309.247833 107.336571,309.855896 
M72.945015,201.671875 
	C74.871902,203.490509 76.798798,205.309143 78.581215,206.991409 
	C83.262596,203.156509 72.388184,200.455780 79.327316,197.210556 
	C79.681931,198.360870 80.002159,199.399643 80.322388,200.438400 
	C80.992775,198.693665 80.962051,196.731277 80.022369,196.079651 
	C79.259491,195.550644 77.122955,196.233368 76.104286,197.029495 
	C74.709068,198.119934 73.795273,199.826385 72.945015,201.671875 
M135.393753,269.723877 
	C135.782166,266.945770 136.170563,264.167664 136.558975,261.389557 
	C135.823105,261.174255 135.087234,260.958954 134.351364,260.743652 
	C137.935059,269.993042 128.395691,271.660614 125.151428,276.965149 
	C125.503517,277.262512 125.855614,277.559875 126.207703,277.857239 
	C129.168381,275.372040 132.129059,272.886810 135.393753,269.723877 
M62.524654,176.801193 
	C62.173027,179.035797 61.821404,181.270416 61.469780,183.505020 
	C62.035709,183.599686 62.601643,183.694336 63.167572,183.789001 
	C63.672173,182.066208 64.176773,180.343399 64.405167,179.563614 
	C66.720184,178.508392 68.349472,177.765747 70.455231,176.805893 
	C68.178406,174.928406 66.828552,173.815308 65.278564,172.537186 
	C64.425842,173.776276 63.603737,174.970901 62.524654,176.801193 
M69.898514,206.273499 
	C70.507980,205.902679 71.117447,205.531845 71.259315,205.445541 
	C69.700996,205.277695 67.936241,205.087616 66.181274,204.898605 
	C66.947327,201.482864 67.527191,198.897293 68.107063,196.311737 
	C67.610313,196.189346 67.113556,196.066956 66.616806,195.944565 
	C65.615974,199.400894 64.615143,202.857208 63.378090,207.129318 
	C65.873772,206.906982 67.584244,206.754593 69.898514,206.273499 
M106.993561,205.265564 
	C106.205841,205.411804 105.418121,205.558044 104.630409,205.704285 
	C104.761299,206.101517 104.892197,206.498734 105.023094,206.895950 
	C105.824615,206.492523 106.626137,206.089096 106.993561,205.265564 
M96.526665,284.334686 
	C96.526665,284.334686 96.396980,284.599731 96.396980,284.599731 
	C96.396980,284.599731 96.670258,284.547119 96.526665,284.334686 
M97.603241,282.519165 
	C97.603241,282.519165 97.473717,282.611633 97.603241,282.519165 
z"/>
<path fill="#1E1B28" opacity="1.000000" stroke="none" 
	d="
M321.060303,220.981262 
	C321.060303,220.981262 321.464661,220.996780 322.104980,221.004944 
	C327.840851,220.949387 332.936432,220.885651 338.355469,220.957535 
	C345.385010,224.710342 350.137634,232.002121 347.768250,236.430420 
	C345.371948,240.909027 343.518921,245.002121 346.928955,250.422409 
	C344.112793,250.755173 342.376404,250.960342 340.300934,251.162842 
	C339.268463,251.885498 338.575012,252.610840 337.881592,253.336182 
	C338.570312,253.272690 339.259003,253.209198 340.354126,253.097855 
	C341.825867,253.050018 342.891235,253.050018 344.456177,253.050018 
	C340.669434,261.200500 335.269135,266.988037 327.668091,271.184326 
	C321.848846,272.229248 316.395508,273.207947 310.587219,274.103058 
	C308.025635,273.154572 305.819000,272.289703 303.835266,271.149292 
	C304.194305,270.680756 304.330475,270.487701 304.831299,270.258179 
	C306.420898,270.221649 307.645905,270.221649 308.870880,270.221649 
	C308.858032,269.917786 308.845215,269.613922 308.832367,269.310059 
	C307.676453,269.098633 306.520569,268.887177 305.338196,268.670898 
	C307.546936,265.850586 309.227600,262.923553 311.639740,260.845703 
	C314.020233,258.795105 317.140778,257.603577 320.217590,256.054260 
	C321.323242,255.750946 322.147949,255.428543 323.340088,255.183533 
	C325.186829,256.173065 326.666168,257.085205 327.286377,257.467621 
	C329.221954,256.394836 330.655029,255.600555 332.424500,254.727936 
	C332.975586,254.014114 333.190277,253.378632 333.404968,252.743134 
	C332.597168,252.846710 331.789368,252.950302 330.541626,253.020844 
	C329.729462,251.553314 329.071533,250.126022 329.035187,248.683044 
	C328.888855,242.874969 329.033478,237.059052 328.857330,231.252502 
	C328.793457,229.147614 328.132263,227.060852 327.743652,224.965820 
	C327.214661,225.010574 326.685669,225.055328 326.156677,225.100067 
	C326.156677,226.611862 326.121429,228.124603 326.162720,229.635254 
	C326.348755,236.440201 326.429657,243.251740 326.814209,250.045868 
	C326.985718,253.076447 326.077637,254.438568 322.634033,254.008606 
	C321.512817,254.703125 320.738159,255.382507 319.540405,256.012451 
	C317.509796,255.963013 315.902222,255.963013 313.997101,255.963013 
	C317.288605,245.526672 318.802551,235.260529 314.917450,225.010071 
	C317.136261,223.554855 319.098297,222.268066 321.060303,220.981262 
z"/>
<path fill="#1E1B28" opacity="1.000000" stroke="none" 
	d="
M295.059601,238.620117 
	C294.475403,238.361053 293.891174,238.102005 293.345795,237.277283 
	C291.547882,232.156143 291.474792,227.800827 294.596649,223.662567 
	C294.879456,223.287659 294.204346,222.190063 293.974091,221.428070 
	C293.974091,221.428070 294.228485,221.084854 294.542175,221.627121 
	C295.574554,221.806610 296.293243,221.443832 297.302704,221.018646 
	C298.454010,220.492218 299.314514,220.028214 300.561462,219.515106 
	C308.071136,219.135193 311.661530,222.212845 310.500336,225.430527 
	C312.050751,227.923874 313.880035,229.496201 313.794067,230.955750 
	C313.329285,238.849426 312.605072,246.747314 311.434448,254.563507 
	C311.198975,256.135803 308.731171,257.465973 307.146698,258.723969 
	C304.225098,261.043610 301.157104,263.178833 298.234161,265.496857 
	C297.370850,266.181519 296.789642,267.221954 296.079163,268.099365 
	C294.898895,267.128540 292.851288,266.279144 292.695282,265.164917 
	C292.151093,261.278168 292.261078,257.299805 292.382233,252.955841 
	C292.741119,251.318924 292.840240,250.082397 292.939331,248.845886 
	C292.278595,249.058746 291.617828,249.271606 290.957092,249.484451 
	C291.949585,248.026840 292.942078,246.569244 294.604980,245.409332 
	C296.515991,245.365372 297.756592,245.023712 299.294769,244.855865 
	C300.622528,245.226654 301.652740,245.423645 302.682953,245.620621 
	C302.740967,245.279480 302.798950,244.938324 302.856934,244.597168 
	C301.576721,244.049667 300.296478,243.502167 298.931702,242.633911 
	C298.809052,241.876434 298.770996,241.439697 298.754517,240.716583 
	C298.267090,240.514267 297.758057,240.598312 296.992340,240.630524 
	C296.145660,240.394882 295.555664,240.211075 294.965637,240.027252 
	C294.965637,240.027252 295.004944,239.996796 295.092163,239.667572 
	C295.139465,239.098953 295.099548,238.859543 295.059601,238.620117 
z"/>
<path fill="#E5E5E7" opacity="1.000000" stroke="none" 
	d="
M292.122437,253.356247 
	C292.261078,257.299805 292.151093,261.278168 292.695282,265.164917 
	C292.851288,266.279144 294.898895,267.128540 296.079163,268.099365 
	C296.789642,267.221954 297.370850,266.181519 298.234161,265.496857 
	C301.157104,263.178833 304.225098,261.043610 307.146698,258.723969 
	C308.731171,257.465973 311.198975,256.135803 311.434448,254.563507 
	C312.605072,246.747314 313.329285,238.849426 313.794067,230.955750 
	C313.880035,229.496201 312.050751,227.923874 310.500336,225.430527 
	C311.661530,222.212845 308.071136,219.135193 300.514832,219.159592 
	C300.055542,218.615601 300.029236,218.378021 300.002960,218.140442 
	C305.637543,216.666397 310.008148,218.854630 313.423950,222.811493 
	C315.887634,222.122345 318.072876,221.511108 320.659210,220.940567 
	C319.098297,222.268066 317.136261,223.554855 314.917450,225.010071 
	C318.802551,235.260529 317.288605,245.526672 313.997101,255.963013 
	C315.902222,255.963013 317.509796,255.963013 319.555908,255.983459 
	C319.994446,256.003906 319.936646,256.035156 319.936646,256.035156 
	C317.140778,257.603577 314.020233,258.795105 311.639740,260.845703 
	C309.227600,262.923553 307.546936,265.850586 305.338196,268.670898 
	C306.520569,268.887177 307.676453,269.098633 308.832367,269.310059 
	C308.845215,269.613922 308.858032,269.917786 308.870880,270.221649 
	C307.645905,270.221649 306.420898,270.221649 304.565002,270.159851 
	C303.439880,270.273376 302.945679,270.448700 302.451477,270.624023 
	C302.838440,270.890961 303.225433,271.157867 303.612396,271.424805 
	C305.819000,272.289703 308.025635,273.154572 310.478729,274.301514 
	C310.478912,274.962036 310.232605,275.340576 309.986298,275.719086 
	C305.056946,274.050354 300.201752,272.088501 295.172028,270.816681 
	C291.858643,269.978821 288.294006,270.134644 284.447083,269.534149 
	C284.044250,268.869110 284.036194,268.515442 284.028137,268.161774 
	C286.156891,268.067200 288.285645,267.972626 289.198730,267.932037 
	C289.558990,262.256592 289.900299,256.880219 290.775635,251.449173 
	C291.580597,252.048401 291.851501,252.702332 292.122437,253.356247 
M301.565247,267.970764 
	C303.846344,265.956818 306.127472,263.942871 309.244568,261.190887 
	C302.977539,261.903351 301.273438,263.483765 301.565247,267.970764 
z"/>
<path fill="#EAE9EB" opacity="1.000000" stroke="none" 
	d="
M376.028259,262.090149 
	C382.243561,258.374451 385.251221,252.289520 387.922943,245.962814 
	C389.038940,243.320099 390.113983,240.660095 391.951202,238.166733 
	C394.491699,243.816666 392.185364,249.395828 392.385590,255.336258 
	C394.911163,254.053482 397.212189,252.884735 399.790253,251.575287 
	C399.790253,252.452576 399.859100,252.673111 399.780396,252.759995 
	C395.471008,257.516724 391.346893,264.716125 389.191956,271.508911 
	C387.483368,276.894684 384.664581,281.280884 378.646332,282.173523 
	C376.723236,282.458771 373.815033,282.140350 372.832214,280.915161 
	C371.965332,279.834595 372.475403,276.569733 373.556732,275.201111 
	C377.350433,270.399475 381.408875,265.741760 385.850189,261.540436 
	C388.724457,258.821472 389.892914,256.174896 388.898834,253.162003 
	C384.957520,256.583405 380.830627,260.165863 376.363525,263.457703 
	C376.024933,262.808075 376.026581,262.449127 376.028259,262.090149 
M374.840576,277.938599 
	C374.353302,282.285889 376.982880,281.093872 379.148407,280.241974 
	C384.568665,278.109589 387.829987,271.452545 387.557343,261.871338 
	C382.950714,267.520416 379.012726,272.349579 374.840576,277.938599 
z"/>
<path fill="#E5E5E7" opacity="1.000000" stroke="none" 
	d="
M281.959473,269.840546 
	C280.304016,270.775940 278.558441,271.583588 277.012268,272.673920 
	C274.008118,274.792450 271.139923,275.343475 266.965027,271.938599 
	C270.079346,270.758301 272.350616,270.115967 274.398956,269.046600 
	C275.835052,268.296875 277.696045,267.195953 278.121307,265.856293 
	C282.130737,253.225555 283.970032,240.267548 282.466980,227.034393 
	C281.850525,221.607101 280.224152,221.041931 275.703735,224.067581 
	C271.111877,227.141037 267.659668,231.270233 267.011292,236.841171 
	C266.691986,239.584656 267.852264,242.500366 268.408478,245.716675 
	C265.512299,244.957382 264.153595,242.526611 264.031006,239.202835 
	C263.776917,232.310303 270.747620,222.923553 277.470093,220.962036 
	C281.941345,219.657379 284.360229,221.088028 285.081329,226.021469 
	C287.144165,240.135132 284.578796,253.807068 280.956909,267.949799 
	C281.419861,268.993927 281.689667,269.417236 281.959473,269.840546 
z"/>
<path fill="#E5E5E7" opacity="1.000000" stroke="none" 
	d="
M340.639984,251.165527 
	C342.376404,250.960342 344.112793,250.755173 346.928955,250.422409 
	C343.518921,245.002121 345.371948,240.909027 347.768250,236.430420 
	C350.137634,232.002121 345.385010,224.710342 338.354004,220.681320 
	C338.028076,219.901184 338.027069,219.532898 338.026062,219.164597 
	C345.288086,220.889648 349.070801,225.966461 350.906586,232.800262 
	C354.746185,230.969513 358.403320,229.225754 362.491486,227.820984 
	C362.947540,228.399841 362.972534,228.639740 362.997498,228.879639 
	C361.334229,229.633453 359.603241,230.267578 358.019928,231.162842 
	C352.606781,234.223587 348.470367,242.166107 349.477692,248.087860 
	C349.667480,249.203629 351.343750,250.164948 352.480957,250.996735 
	C353.965881,252.082855 355.597076,252.968948 357.579803,254.197983 
	C356.575897,254.627090 356.087189,255.042953 355.783112,254.935669 
	C348.440552,252.345322 348.919220,252.720718 344.264679,258.457123 
	C340.161102,263.514587 334.837219,267.581848 329.458008,272.017883 
	C328.587219,271.672272 328.310608,271.395172 328.033997,271.118042 
	C335.269135,266.988037 340.669434,261.200500 344.456177,253.050018 
	C342.891235,253.050018 341.825867,253.050018 340.322601,252.732880 
	C340.136475,251.998993 340.388245,251.582260 340.639984,251.165527 
z"/>
<path fill="#E5E5E7" opacity="1.000000" stroke="none" 
	d="
M217.486511,263.606934 
	C217.038467,260.669830 216.789688,258.026642 216.254044,254.839371 
	C215.957840,253.836304 215.948486,253.377319 215.939133,252.918350 
	C215.939133,252.918350 215.975800,252.978455 216.078491,252.890625 
	C216.414581,252.509796 216.361801,252.246613 216.022873,252.013214 
	C217.283951,251.219009 218.545029,250.424805 219.799652,249.343964 
	C225.869873,245.276047 231.946548,241.494797 238.191284,237.105164 
	C238.667786,236.286591 238.976196,236.076431 239.284622,235.866287 
	C241.807144,236.278168 244.329666,236.690063 246.308853,237.013229 
	C240.494034,239.411774 234.171585,241.400772 228.481049,244.536514 
	C222.475708,247.845749 218.530106,253.323822 220.142410,260.582642 
	C220.871460,263.864960 223.672241,266.687103 225.000458,270.622131 
	C222.562225,268.381714 220.123993,266.141266 217.486511,263.606934 
z"/>
<path fill="#E3E3E4" opacity="1.000000" stroke="none" 
	d="
M363.405762,228.910858 
	C362.972534,228.639740 362.947540,228.399841 362.883698,227.800232 
	C369.087524,226.793488 371.598358,228.523300 371.794800,234.765045 
	C371.991699,241.020706 371.163605,247.303177 371.197083,253.571701 
	C371.214417,256.815857 370.603455,260.799652 375.635925,262.054596 
	C376.026581,262.449127 376.024933,262.808075 376.017700,263.436218 
	C371.279205,264.424622 368.970795,261.732849 368.766907,257.602478 
	C368.481476,251.820663 368.955444,246.004333 368.998383,240.201981 
	C369.016754,237.718216 369.338165,235.000900 368.454132,232.823151 
	C367.784424,231.173431 365.422760,230.210587 363.405762,228.910858 
z"/>
<path fill="#DAD9DB" opacity="1.000000" stroke="none" 
	d="
M248.334015,262.503265 
	C253.661636,258.608093 258.696350,254.934998 264.031158,251.042953 
	C262.223358,257.431976 243.910675,268.994202 237.523071,267.989532 
	C241.132690,266.182922 244.586899,264.454132 248.334015,262.503265 
z"/>
<path fill="#DAD9DB" opacity="1.000000" stroke="none" 
	d="
M239.039246,235.596710 
	C238.976196,236.076431 238.667786,236.286591 238.191467,236.721481 
	C231.618942,233.962799 230.973328,232.492783 233.201279,226.006821 
	C230.969666,224.233780 228.743256,222.464890 226.516846,220.695999 
	C226.787704,220.297653 227.058578,219.899292 227.329437,219.500946 
	C231.235031,220.975082 234.129318,226.294174 239.856735,223.356323 
	C240.636566,225.057770 240.837891,226.444183 241.039230,227.830597 
	C239.044830,228.154953 235.895630,227.826294 235.273453,228.926590 
	C233.436920,232.174362 236.119705,233.970978 239.039246,235.596710 
z"/>
<path fill="#8E8E8E" opacity="1.000000" stroke="none" 
	d="
M46.933197,171.867157 
	C47.407394,173.048233 48.297096,175.018463 47.746731,175.581818 
	C44.652588,178.748993 43.366386,182.490997 42.898117,186.917664 
	C42.131367,186.064468 41.630547,185.051575 40.674629,183.118240 
	C37.863281,188.412766 35.393021,193.064926 32.922756,197.717102 
	C32.517574,197.524979 32.112392,197.332855 31.707207,197.140747 
	C34.181519,192.213669 36.655830,187.286606 39.667000,181.984390 
	C40.459175,181.027252 40.714485,180.445267 40.969788,179.863281 
	C41.273952,179.282547 41.578117,178.701828 42.421413,177.998810 
	C43.282372,177.173172 43.604202,176.469833 43.926033,175.766479 
	C44.845272,174.513214 45.764511,173.259949 46.933197,171.867157 
z"/>
<path fill="#626262" opacity="1.000000" stroke="none" 
	d="
M29.196503,245.233688 
	C30.805920,251.897614 32.415337,258.561554 33.997665,265.624329 
	C32.532696,265.768066 31.094810,265.512909 29.050137,265.150085 
	C28.754799,261.668610 28.445816,258.026306 28.136833,254.383972 
	C28.398396,254.419876 28.659958,254.455780 28.921520,254.491684 
	C28.238859,253.207062 27.556200,251.922455 27.131498,250.078949 
	C27.991804,248.091278 28.594152,246.662491 29.196503,245.233688 
z"/>
<path fill="#F6F6F6" opacity="1.000000" stroke="none" 
	d="
M241.406616,227.923828 
	C240.837891,226.444183 240.636566,225.057770 240.246307,223.433624 
	C246.909180,222.012741 248.574280,222.346008 251.993546,225.781265 
	C249.211853,229.529526 245.323654,228.092728 241.406616,227.923828 
z"/>
<path fill="#444444" opacity="1.000000" stroke="none" 
	d="
M143.114975,137.636383 
	C133.868164,137.598724 124.692337,137.280411 115.188385,136.718338 
	C116.041817,135.672012 117.223373,134.869431 118.831650,134.417526 
	C125.777870,134.890991 132.297379,135.013794 138.816879,135.136597 
	C140.273239,135.876297 141.729599,136.616013 143.114975,137.636383 
z"/>
<path fill="#919191" opacity="1.000000" stroke="none" 
	d="
M28.924744,244.905151 
	C28.594152,246.662491 27.991804,248.091278 27.186619,249.799683 
	C26.069052,244.817795 25.154320,239.556305 24.239588,234.294815 
	C24.615257,234.169769 24.990927,234.044708 25.366596,233.919647 
	C26.002405,234.659851 26.638212,235.400055 27.606831,236.011902 
	C28.177425,238.781265 28.415205,241.678940 28.924744,244.905151 
z"/>
<path fill="#CAC9CC" opacity="1.000000" stroke="none" 
	d="
M327.668091,271.184326 
	C328.310608,271.395172 328.587219,271.672272 329.125122,272.092987 
	C323.215149,273.486725 317.043854,274.736877 310.429443,275.853058 
	C310.232605,275.340576 310.478912,274.962036 310.833710,274.385071 
	C316.395508,273.207947 321.848846,272.229248 327.668091,271.184326 
z"/>
<path fill="#CAC9CC" opacity="1.000000" stroke="none" 
	d="
M337.637451,219.029419 
	C338.027069,219.532898 338.028076,219.901184 338.030518,220.545700 
	C332.936432,220.885651 327.840851,220.949387 322.306580,221.021942 
	C326.547943,217.101135 331.906158,218.053406 337.637451,219.029419 
z"/>
<path fill="#6F6F6F" opacity="1.000000" stroke="none" 
	d="
M138.397400,135.081299 
	C132.297379,135.013794 125.777870,134.890991 119.193108,134.460205 
	C125.411201,134.443466 131.694565,134.734726 138.397400,135.081299 
z"/>
<path fill="#E5E5E7" opacity="1.000000" stroke="none" 
	d="
M293.655823,221.637680 
	C294.204346,222.190063 294.879456,223.287659 294.596649,223.662567 
	C291.474792,227.800827 291.547882,232.156143 293.168701,237.114166 
	C292.292450,237.267258 291.225281,237.191284 291.033722,236.741959 
	C288.727692,231.333603 289.150330,226.282120 293.655823,221.637680 
z"/>
<path fill="#E5E5E7" opacity="1.000000" stroke="none" 
	d="
M298.997223,244.682068 
	C297.756592,245.023712 296.515991,245.365372 294.894653,245.325974 
	C294.340424,243.414856 294.166870,241.884796 294.479492,240.190979 
	C295.555664,240.211075 296.145660,240.394882 297.360962,240.724548 
	C298.235107,240.914597 298.484009,240.958786 298.732910,241.002960 
	C298.770996,241.439697 298.809052,241.876434 298.928162,242.921814 
	C299.005188,243.914322 299.001190,244.298203 298.997223,244.682068 
z"/>
<path fill="#E3E3E4" opacity="1.000000" stroke="none" 
	d="
M299.668427,218.125702 
	C300.029236,218.378021 300.055542,218.615601 300.128418,219.208679 
	C299.314514,220.028214 298.454010,220.492218 297.159576,220.794922 
	C296.453033,220.410553 296.180389,220.187469 295.907776,219.964401 
	C297.049805,219.346603 298.191864,218.728790 299.668427,218.125702 
z"/>
<path fill="#CAC9CC" opacity="1.000000" stroke="none" 
	d="
M282.306519,269.915710 
	C281.689667,269.417236 281.419861,268.993927 281.060120,268.334991 
	C281.738312,268.068909 282.506439,268.038422 283.651367,268.084839 
	C284.036194,268.515442 284.044250,268.869110 284.046570,269.488098 
	C283.578400,269.832581 283.115967,269.911713 282.306519,269.915710 
z"/>
<path fill="#E3E3E4" opacity="1.000000" stroke="none" 
	d="
M292.382202,252.955841 
	C291.851501,252.702332 291.580597,252.048401 291.033386,251.166199 
	C290.779816,250.694138 290.802551,250.450363 290.891174,249.845520 
	C291.617828,249.271606 292.278595,249.058746 292.939331,248.845886 
	C292.840240,250.082397 292.741119,251.318924 292.382202,252.955841 
z"/>
<path fill="#A5A5A5" opacity="1.000000" stroke="none" 
	d="
M43.647522,175.965454 
	C43.604202,176.469833 43.282372,177.173172 42.653416,177.896606 
	C42.687199,177.332596 43.028107,176.748520 43.647522,175.965454 
z"/>
<path fill="#A5A5A5" opacity="1.000000" stroke="none" 
	d="
M40.734619,180.072281 
	C40.714485,180.445267 40.459175,181.027252 39.927750,181.783890 
	C39.934235,181.399460 40.216839,180.840363 40.734619,180.072281 
z"/>
<path fill="#E5E5E7" opacity="1.000000" stroke="none" 
	d="
M295.603760,220.033203 
	C296.180389,220.187469 296.453033,220.410553 296.868774,220.857330 
	C296.293243,221.443832 295.574554,221.806610 294.635284,221.572693 
	C294.709686,220.684677 295.004730,220.393356 295.603760,220.033203 
z"/>
<path fill="#E5E5E7" opacity="1.000000" stroke="none" 
	d="
M294.560181,238.288315 
	C295.099548,238.859543 295.139465,239.098953 295.094299,239.692368 
	C294.324829,239.968231 293.640411,239.890076 292.955994,239.811920 
	C293.324219,239.193451 293.692474,238.574982 294.560181,238.288315 
z"/>
<path fill="#F6F6F6" opacity="1.000000" stroke="none" 
	d="
M215.611633,253.009369 
	C215.948486,253.377319 215.957840,253.836304 215.979935,254.639221 
	C213.761261,257.952179 211.950516,262.938934 207.651215,261.390808 
	C203.432434,259.871704 205.780167,255.047653 205.852951,251.548386 
	C205.937119,247.501083 205.872528,243.450684 205.872528,239.401627 
	C205.357346,239.201126 204.842178,239.000626 204.326996,238.800125 
	C199.879135,244.686905 195.431259,250.573685 190.983383,256.460480 
	C190.528748,256.267212 190.074097,256.073944 189.619446,255.880676 
	C189.619446,247.013626 189.619446,238.146576 189.619446,229.279510 
	C189.156281,229.023514 188.693130,228.767502 188.229965,228.511505 
	C186.345123,230.547638 183.704605,232.269257 182.703934,234.673416 
	C177.928650,246.146423 173.609283,257.808899 169.099075,269.392853 
	C168.393555,271.204895 167.540344,272.959503 166.755432,274.740662 
	C166.218353,274.595978 165.681290,274.451294 165.144211,274.306610 
	C165.249237,272.292236 165.235229,270.263397 165.478439,268.265839 
	C167.164490,254.418076 169.674896,240.595352 167.062805,226.599457 
	C165.832275,220.006027 163.437225,218.525757 157.910110,222.072006 
	C153.271317,225.048294 148.840408,228.892731 145.533768,233.271332 
	C140.783875,239.560989 142.548004,245.445251 149.229996,249.715073 
	C150.019943,250.219849 150.761383,250.800507 151.924973,251.631393 
	C144.660416,251.395477 139.289139,244.934143 140.489502,238.566956 
	C142.103134,230.007538 152.374939,220.191315 161.024353,218.788864 
	C165.606125,218.045975 168.989731,219.699890 169.416077,224.280594 
	C170.243988,233.175323 170.376892,242.134735 170.662949,251.676971 
	C170.528183,252.804825 170.528183,253.323059 170.528183,253.841293 
	C170.650620,253.838165 170.773056,253.835037 170.895493,253.831924 
	C170.935242,253.226044 170.975006,252.620148 171.014755,252.014267 
	C173.249268,247.224106 175.247009,242.303055 177.798096,237.687881 
	C179.625870,234.381271 181.926453,231.224701 184.548264,228.516357 
	C185.814377,227.208435 188.530441,226.256378 190.169922,226.699066 
	C191.414597,227.035126 192.598755,229.777710 192.751801,231.541306 
	C193.124405,235.834808 192.870819,240.181778 192.895157,244.507080 
	C192.900375,245.435715 193.014313,246.363754 193.161407,248.502441 
	C195.876755,245.172516 197.668350,242.420624 200.017593,240.281021 
	C201.705826,238.743439 204.138596,238.023361 206.239227,236.938629 
	C207.186569,239.045395 208.771713,241.099182 208.952057,243.269684 
	C209.361877,248.202255 209.081223,253.192169 209.081223,259.309052 
	C211.519089,256.868927 213.401611,254.984634 215.611633,253.009369 
M192.397919,249.456818 
	C192.397919,249.456818 192.572922,249.573380 192.572922,249.573380 
	C192.572922,249.573380 192.556427,249.325012 192.397919,249.456818 
z"/>
<path fill="#626262" opacity="1.000000" stroke="none" 
	d="
M124.805832,245.206329 
	C123.431786,247.674011 122.057739,250.141708 120.091766,252.967407 
	C118.689629,255.235092 117.879417,257.144775 117.069199,259.054443 
	C117.069206,259.054443 117.001366,259.029449 116.796600,259.205444 
	C116.415367,259.938324 116.238892,260.495209 116.062408,261.052124 
	C116.062408,261.052124 116.045288,260.985657 115.753357,261.123413 
	C113.897026,260.422516 112.320923,259.604797 110.771461,258.739349 
	C109.191307,257.856750 107.637321,256.927307 106.071869,256.018372 
	C107.250969,252.409744 108.430077,248.801117 109.646072,245.079559 
	C107.629929,244.324890 105.941231,243.692780 104.252541,243.060684 
	C104.325874,242.795486 104.399208,242.530273 104.472542,242.265076 
	C106.890503,242.054520 109.308456,241.843948 112.151993,241.461884 
	C112.927887,242.633926 113.278206,243.977478 113.759071,245.821747 
	C113.698784,245.821747 114.473312,245.821747 115.542404,245.795044 
	C116.246277,245.173813 116.655594,244.579285 117.409592,243.982025 
	C119.480042,243.391098 121.190613,242.750824 122.939003,242.240021 
	C123.650421,242.032166 124.444000,242.105560 125.200203,242.051010 
	C125.230164,242.693253 125.260124,243.335510 125.187805,244.445831 
	C125.085526,244.913910 124.805832,245.206329 124.805832,245.206329 
M112.220360,257.521973 
	C112.080788,257.528076 111.941223,257.534210 111.801643,257.540344 
	C111.894554,257.584534 111.987465,257.628693 112.220360,257.521973 
z"/>
<path fill="#151515" opacity="1.000000" stroke="none" 
	d="
M107.774017,309.851501 
	C111.670380,309.247833 115.129288,308.648560 118.588196,308.049255 
	C118.716064,308.456299 118.843933,308.863342 118.971802,309.270386 
	C116.452263,310.138153 113.979408,311.566467 111.405457,311.780853 
	C96.944237,312.985199 83.288033,310.160706 71.036560,302.187592 
	C66.057411,298.947235 62.161446,294.611145 62.985222,287.784912 
	C71.758743,307.405884 89.973106,307.774841 107.774017,309.851501 
z"/>
<path fill="#888888" opacity="1.000000" stroke="none" 
	d="
M121.980972,226.066116 
	C122.334610,217.819901 125.071228,210.616562 131.615875,205.270447 
	C131.993988,206.980682 131.993988,208.334793 131.993988,208.798828 
	C133.527939,208.798828 134.560440,208.660172 135.539017,208.830795 
	C137.064880,209.096863 138.554153,209.572739 140.058945,209.959702 
	C138.380981,213.105225 136.703018,216.250763 135.025055,219.396286 
	C134.756516,219.186905 134.487976,218.977524 134.219437,218.768143 
	C134.219437,220.291061 134.219437,221.813995 133.763519,223.560364 
	C131.666168,222.134491 130.024765,220.485168 128.383362,218.835846 
	C127.243553,220.203140 126.103729,221.570435 124.963905,222.937714 
	C124.963898,222.937714 124.983360,222.973160 124.638641,223.062881 
	C123.869667,224.122696 123.445404,225.092773 123.005508,226.040100 
	C122.989876,226.017319 123.044960,226.021484 122.774048,226.019104 
	C122.322639,226.023010 122.142143,226.029327 121.977379,226.030365 
	C121.993118,226.025116 121.980972,226.066116 121.980972,226.066116 
z"/>
<path fill="#959595" opacity="1.000000" stroke="none" 
	d="
M97.140327,269.939148 
	C97.400848,269.807495 97.614601,269.621979 98.164932,269.284241 
	C99.022331,268.115570 99.496391,267.045227 99.970444,265.974915 
	C99.970451,265.974915 100.001389,265.992737 100.176361,265.834290 
	C100.251671,265.122223 100.152016,264.568573 100.052353,264.014954 
	C97.868973,264.869537 95.685600,265.724152 92.505249,266.968964 
	C94.085129,264.475739 95.458374,262.308594 97.537735,260.128174 
	C101.938934,261.041107 104.100578,266.137970 109.056755,264.346008 
	C110.788475,265.740112 112.372429,266.824402 113.956390,267.908691 
	C113.547760,270.111359 113.139130,272.314026 112.652908,275.024597 
	C111.076118,275.964874 109.576920,276.397217 108.048126,276.493774 
	C106.988045,275.080902 105.957550,274.003815 104.834335,272.802124 
	C104.426254,272.529083 104.189240,272.635468 103.768616,273.003662 
	C103.331978,273.011292 103.157280,273.011963 102.942139,272.796631 
	C102.759705,272.347382 102.617729,272.114075 102.475746,271.880798 
	C102.272713,272.228638 102.069679,272.576477 101.579742,272.934082 
	C100.910240,272.936279 100.527641,272.928711 99.926697,272.697449 
	C98.852333,271.628876 97.996330,270.783997 97.140327,269.939148 
M104.536125,267.502014 
	C104.536125,267.502014 104.484367,267.525818 104.536125,267.502014 
z"/>
<path fill="#919191" opacity="1.000000" stroke="none" 
	d="
M144.988129,184.006805 
	C145.471756,183.736359 145.955368,183.465912 146.891235,183.290466 
	C147.924210,183.608002 148.504929,183.830551 149.085663,184.053101 
	C150.192413,189.248383 148.051926,193.418198 145.230423,197.571686 
	C143.863785,199.583511 143.384659,202.198257 141.880356,204.767151 
	C141.025055,204.995270 140.793121,204.996262 140.541168,205.005554 
	C140.521149,205.013840 140.478317,205.007370 140.229492,204.726868 
	C138.657639,203.970200 137.334610,203.494003 136.004120,203.015411 
	C135.996689,203.013000 135.981857,203.007935 136.013458,202.656738 
	C135.342697,201.155594 134.640350,200.005615 133.937988,198.855652 
	C133.457947,196.438217 132.432861,193.815948 136.754349,193.064346 
	C138.145676,194.531708 138.930527,195.909653 139.959320,197.715897 
	C141.784149,193.878052 143.396561,190.486923 145.010132,186.705841 
	C145.009521,185.538712 145.007736,184.761520 145.003998,183.991150 
	C145.002045,183.997955 144.988129,184.006805 144.988129,184.006805 
z"/>
<path fill="#959595" opacity="1.000000" stroke="none" 
	d="
M137.958481,188.940292 
	C137.958481,188.940292 137.960205,188.547638 138.131866,187.959900 
	C140.228882,182.201935 137.234619,176.030609 141.563904,171.349548 
	C141.018082,170.845596 140.472244,170.341660 139.926422,169.837708 
	C139.923691,169.464539 139.920959,169.091354 140.273636,168.347198 
	C141.621353,166.078415 142.600571,164.173630 143.610184,162.285080 
	C144.379669,160.845734 145.187698,159.427017 145.978592,157.999115 
	C147.486694,157.977402 148.994797,157.955688 150.502899,157.933990 
	C150.452682,159.361038 150.647385,160.850174 150.304382,162.202972 
	C149.425659,165.668518 148.307877,169.073410 147.735306,170.994202 
	C145.566437,172.123322 144.459488,172.699585 143.009506,173.779694 
	C142.692398,175.904800 143.024902,177.594788 142.680084,179.132935 
	C141.975540,182.275757 140.963028,185.356308 139.912827,188.405869 
	C139.788925,188.765686 138.634949,188.770767 137.958481,188.940292 
z"/>
<path fill="#8E8E8E" opacity="1.000000" stroke="none" 
	d="
M149.346619,183.995087 
	C148.504929,183.830551 147.924210,183.608002 147.131119,183.150391 
	C149.863068,175.612991 152.807358,168.310654 155.751663,161.008331 
	C156.361893,161.066376 156.972137,161.124435 157.582367,161.182480 
	C158.050064,162.535583 158.517776,163.888687 158.826691,165.733582 
	C158.607666,166.473083 158.547440,166.720779 158.487198,166.968491 
	C158.659531,166.647079 158.831863,166.325684 159.004196,166.004272 
	C159.883255,165.887421 160.762299,165.770569 161.641357,165.653717 
	C160.113037,167.649216 158.577271,169.639053 157.059784,171.642746 
	C156.382492,172.537048 155.741974,173.459183 155.042358,174.684341 
	C154.999969,175.000000 155.012421,174.986008 155.012421,174.986008 
	C154.415878,176.096863 153.016449,177.721558 153.347473,178.238770 
	C156.520020,183.195923 151.988495,182.820847 149.346619,183.995087 
z"/>
<path fill="#444444" opacity="1.000000" stroke="none" 
	d="
M96.036392,287.950714 
	C99.202492,289.905670 102.368584,291.860626 105.641663,293.881653 
	C105.586975,297.269836 103.807442,298.135559 100.785637,297.016541 
	C96.902283,295.578491 93.046768,294.065155 89.182518,292.575775 
	C86.152435,291.407959 85.582680,289.501953 87.711487,286.514435 
	C89.787468,286.997894 91.996010,287.512207 94.846832,288.010986 
	C95.671539,287.980499 95.853973,287.965607 96.036392,287.950714 
z"/>
<path fill="#6F6F6F" opacity="1.000000" stroke="none" 
	d="
M115.247841,245.821747 
	C114.473312,245.821747 113.698784,245.821747 113.759071,245.821747 
	C113.278206,243.977478 112.927887,242.633926 112.313393,241.160416 
	C112.819557,239.115646 113.589897,237.200836 115.042831,235.139938 
	C117.829964,234.992310 119.934502,234.990784 122.016647,234.999573 
	C121.994263,235.009888 121.991211,234.960678 122.055634,235.309769 
	C123.758629,236.419342 125.397194,237.179825 127.035767,237.940308 
	C126.584183,239.163803 126.132591,240.387299 125.440605,241.830902 
	C124.444000,242.105560 123.650421,242.032166 122.939003,242.240021 
	C121.190613,242.750824 119.480042,243.391098 117.153366,244.081207 
	C116.117599,244.729324 115.682716,245.275543 115.247841,245.821747 
z"/>
<path fill="#6F6F6F" opacity="1.000000" stroke="none" 
	d="
M108.077713,276.829529 
	C109.576920,276.397217 111.076118,275.964874 112.804413,275.279968 
	C113.721336,274.968781 114.409149,274.910217 115.576416,274.948364 
	C116.055870,275.045044 116.325592,275.282837 116.325592,275.282837 
	C113.425728,276.802765 110.669670,278.865448 107.583725,279.683167 
	C104.750778,280.433838 101.562256,279.842651 98.959381,279.842651 
	C97.750633,277.380890 96.446060,274.824677 95.238045,272.223633 
	C94.576309,270.798828 93.286903,268.876160 96.904633,269.729858 
	C97.996330,270.783997 98.852333,271.628876 100.041245,272.910645 
	C100.871651,273.206512 101.369156,273.065430 101.866653,272.924347 
	C102.069679,272.576477 102.272713,272.228638 102.475746,271.880798 
	C102.617729,272.114075 102.759705,272.347382 103.012741,273.111816 
	C104.455032,275.202728 104.867722,278.190491 108.077713,276.829529 
M100.463676,278.479553 
	C100.463676,278.479553 100.520309,278.454132 100.463676,278.479553 
z"/>
<path fill="#8E8E8E" opacity="1.000000" stroke="none" 
	d="
M137.943878,189.290771 
	C138.634949,188.770767 139.788925,188.765686 139.912827,188.405869 
	C140.963028,185.356308 141.975540,182.275757 142.680084,179.132935 
	C143.024902,177.594788 142.692398,175.904800 142.894928,174.043457 
	C147.833649,176.114609 145.297501,179.908066 145.020157,183.619873 
	C144.988129,184.006805 145.002045,183.997955 144.788086,184.202225 
	C144.719086,185.302933 144.864029,186.199371 145.008972,187.095810 
	C143.396561,190.486923 141.784149,193.878052 139.959320,197.715897 
	C138.930527,195.909653 138.145676,194.531708 137.095917,193.019119 
	C137.197083,191.803406 137.563171,190.722321 137.943878,189.290771 
z"/>
<path fill="#282828" opacity="1.000000" stroke="none" 
	d="
M112.842537,201.010590 
	C113.348335,198.337509 118.380760,194.624878 120.327591,195.844910 
	C121.333611,196.475357 121.442284,198.537689 121.956398,199.953094 
	C121.440849,200.134567 120.925301,200.316055 120.409752,200.497528 
	C120.115837,199.409393 119.821922,198.321243 119.278862,196.310715 
	C118.165504,198.342743 117.433243,199.679245 116.453918,201.466644 
	C118.468773,201.888367 119.941925,202.196701 122.736382,202.781586 
	C120.512459,204.630875 119.168488,206.332733 117.451965,206.892822 
	C116.749611,207.122025 115.241600,204.882187 114.087814,203.065491 
	C113.664536,201.913803 113.253540,201.462189 112.842537,201.010590 
z"/>
<path fill="#535353" opacity="1.000000" stroke="none" 
	d="
M114.164612,267.705994 
	C112.372429,266.824402 110.788475,265.740112 109.333313,264.194397 
	C109.246185,262.766296 109.333145,261.514893 108.749420,260.893829 
	C107.634140,259.707245 106.136909,258.879639 104.798218,257.903046 
	C105.113770,257.430664 105.429329,256.958252 105.908386,256.252136 
	C107.637321,256.927307 109.191307,257.856750 110.771461,258.739349 
	C112.320923,259.604797 113.897026,260.422516 115.773468,261.152100 
	C116.312714,262.637451 116.788498,264.254639 116.645195,265.815002 
	C116.587616,266.442047 115.170944,266.944275 114.164612,267.705994 
z"/>
<path fill="#151515" opacity="1.000000" stroke="none" 
	d="
M72.810081,201.470337 
	C73.795273,199.826385 74.709068,198.119934 76.104286,197.029495 
	C77.122955,196.233368 79.259491,195.550644 80.022369,196.079651 
	C80.962051,196.731277 80.992775,198.693665 80.322388,200.438400 
	C80.002159,199.399643 79.681931,198.360870 79.327316,197.210556 
	C72.388184,200.455780 83.262596,203.156509 78.581215,206.991409 
	C76.798798,205.309143 74.871902,203.490509 72.810081,201.470337 
z"/>
<path fill="#959595" opacity="1.000000" stroke="none" 
	d="
M125.310898,223.061050 
	C126.103729,221.570435 127.243553,220.203140 128.383362,218.835846 
	C130.024765,220.485168 131.666168,222.134491 133.626022,223.863647 
	C130.628601,229.407852 129.062195,229.264359 125.310898,223.061050 
z"/>
<path fill="#282828" opacity="1.000000" stroke="none" 
	d="
M135.241745,270.062744 
	C132.129059,272.886810 129.168381,275.372040 126.207703,277.857239 
	C125.855614,277.559875 125.503517,277.262512 125.151428,276.965149 
	C128.395691,271.660614 137.935059,269.993042 134.351364,260.743652 
	C135.087234,260.958954 135.823105,261.174255 136.558975,261.389557 
	C136.170563,264.167664 135.782166,266.945770 135.241745,270.062744 
z"/>
<path fill="#626262" opacity="1.000000" stroke="none" 
	d="
M104.402985,257.898071 
	C106.136909,258.879639 107.634140,259.707245 108.749420,260.893829 
	C109.333145,261.514893 109.246185,262.766296 109.185562,263.884644 
	C104.100578,266.137970 101.938934,261.041107 97.853867,260.055237 
	C99.645164,259.294800 101.826454,258.593964 104.402985,257.898071 
z"/>
<path fill="#959595" opacity="1.000000" stroke="none" 
	d="
M140.478317,205.007355 
	C140.478317,205.007370 140.521149,205.013840 140.664307,205.337326 
	C140.870071,206.124954 140.932693,206.589081 140.995316,207.053223 
	C140.767883,207.835770 140.540451,208.618332 140.185989,209.680298 
	C138.554153,209.572739 137.064880,209.096863 135.539017,208.830795 
	C134.560440,208.660172 133.527939,208.798828 131.993988,208.798828 
	C131.993988,208.334793 131.993988,206.980682 131.982178,205.239136 
	C131.970383,204.851669 131.945526,204.483871 132.301453,204.274216 
	C133.765533,203.712357 134.873688,203.360138 135.981857,203.007935 
	C135.981857,203.007935 135.996689,203.013000 136.187408,203.317566 
	C137.744858,204.083893 139.111588,204.545624 140.478317,205.007355 
z"/>
<path fill="#8E8E8E" opacity="1.000000" stroke="none" 
	d="
M62.653141,176.483353 
	C63.603737,174.970901 64.425842,173.776276 65.278564,172.537186 
	C66.828552,173.815308 68.178406,174.928406 70.455231,176.805893 
	C68.349472,177.765747 66.720184,178.508392 64.405167,179.563614 
	C64.176773,180.343399 63.672173,182.066208 63.167572,183.789001 
	C62.601643,183.694336 62.035709,183.599686 61.469780,183.505020 
	C61.821404,181.270416 62.173027,179.035797 62.653141,176.483353 
z"/>
<path fill="#7B7B7B" opacity="1.000000" stroke="none" 
	d="
M145.980682,157.649384 
	C145.187698,159.427017 144.379669,160.845734 143.610184,162.285080 
	C142.600571,164.173630 141.621353,166.078415 140.277405,168.067322 
	C137.840622,168.036987 137.284210,167.317810 138.718613,165.500824 
	C140.276993,163.526794 142.356842,161.797806 141.237030,158.621002 
	C141.014923,157.990921 142.856171,156.521545 143.929504,155.670853 
	C144.085571,155.547150 145.272720,156.724380 145.980682,157.649384 
z"/>
<path fill="#8E8E8E" opacity="1.000000" stroke="none" 
	d="
M97.974297,204.006973 
	C96.831596,204.994522 95.688889,205.982086 94.137794,206.687805 
	C93.364395,206.040115 92.999390,205.674240 92.916405,205.053101 
	C93.400253,204.086823 93.602081,203.375839 93.866547,202.763962 
	C93.929176,202.863083 93.725227,202.978821 93.989716,202.799500 
	C94.839859,200.763748 95.425514,198.907333 96.023346,196.788422 
	C96.022148,196.351242 96.008766,196.176559 95.995377,196.001877 
	C97.436432,197.167740 98.877480,198.333618 100.469284,200.046478 
	C99.738121,201.731308 98.856209,202.869141 97.974297,204.006973 
z"/>
<path fill="#6F6F6F" opacity="1.000000" stroke="none" 
	d="
M119.976196,230.045013 
	C119.742882,228.967682 119.270988,227.862579 119.391602,226.826447 
	C119.441071,226.401459 120.769203,226.125305 121.748322,225.923782 
	C121.980972,226.066116 121.993118,226.025116 122.079620,226.190521 
	C122.459068,226.244446 122.752014,226.132965 123.044960,226.021484 
	C123.044960,226.021484 122.989876,226.017319 123.201538,226.147141 
	C123.942566,226.509613 124.471924,226.742264 125.001282,226.974915 
	C126.436584,227.981812 127.871887,228.988708 129.651443,229.997223 
	C129.995697,229.998856 129.966827,229.974457 129.966827,229.974457 
	C129.179382,232.276245 128.391937,234.578049 127.239243,236.757050 
	C126.249283,235.754944 125.624573,234.875641 125.000084,233.998169 
	C125.000305,234.000000 124.996925,234.001221 125.344803,233.973862 
	C126.383224,233.289749 127.073769,232.633011 127.764328,231.976273 
	C126.496155,231.653763 125.227989,231.331238 123.982208,231.000061 
	C124.004593,230.991425 124.001762,231.039337 123.979958,230.792725 
	C122.630836,230.379089 121.303520,230.212051 119.976196,230.045013 
z"/>
<path fill="#191624" opacity="1.000000" stroke="none" 
	d="
M69.596619,206.437851 
	C67.584244,206.754593 65.873772,206.906982 63.378090,207.129318 
	C64.615143,202.857208 65.615974,199.400894 66.616806,195.944565 
	C67.113556,196.066956 67.610313,196.189346 68.107063,196.311737 
	C67.527191,198.897293 66.947327,201.482864 66.181274,204.898605 
	C67.936241,205.087616 69.700996,205.277695 71.259315,205.445541 
	C71.117447,205.531845 70.507980,205.902679 69.596619,206.437851 
z"/>
<path fill="#7B7B7B" opacity="1.000000" stroke="none" 
	d="
M139.592163,169.925659 
	C140.472244,170.341660 141.018082,170.845596 141.563904,171.349548 
	C137.234619,176.030609 140.228882,182.201935 138.143463,187.763901 
	C137.993393,185.459671 138.217926,182.741882 137.946609,180.074524 
	C137.723038,177.876923 136.911911,175.739090 136.116409,172.612900 
	C136.570343,172.237305 137.914124,171.125458 139.592163,169.925659 
z"/>
<path fill="#151515" opacity="1.000000" stroke="none" 
	d="
M92.634369,205.308380 
	C92.999390,205.674240 93.364395,206.040115 93.782333,206.661041 
	C92.372505,206.916122 90.909752,206.916122 89.459358,206.916122 
	C88.776871,199.944702 90.937859,195.918335 95.676178,195.893677 
	C96.008766,196.176559 96.022148,196.351242 95.663010,196.817261 
	C90.064102,197.810883 92.878700,200.657242 93.725227,202.978821 
	C93.725227,202.978821 93.929176,202.863083 93.520111,202.804657 
	C92.460831,203.297607 91.810616,203.848969 91.160400,204.400330 
	C91.651718,204.703018 92.143044,205.005707 92.634369,205.308380 
z"/>
<path fill="#282828" opacity="1.000000" stroke="none" 
	d="
M98.064598,204.349823 
	C98.856209,202.869141 99.738121,201.731308 100.672913,200.271179 
	C101.229111,198.596832 101.732414,197.244766 102.521614,195.124725 
	C103.488396,197.383804 104.141533,198.909988 104.496201,199.738754 
	C102.963547,202.201660 101.576332,204.430862 99.884232,207.149994 
	C99.264351,206.269165 98.709625,205.480927 98.064598,204.349823 
z"/>
<path fill="#888888" opacity="1.000000" stroke="none" 
	d="
M112.500839,200.980530 
	C113.253540,201.462189 113.664536,201.913803 114.013229,202.691345 
	C111.209396,203.150177 108.467865,203.283081 105.038399,203.449326 
	C106.207809,201.708084 107.144058,200.314041 108.515244,198.938461 
	C108.950195,198.956940 109.136909,199.137436 109.136909,199.137436 
	C110.144318,199.741791 111.151726,200.346130 112.500839,200.980530 
z"/>
<path fill="#6F6F6F" opacity="1.000000" stroke="none" 
	d="
M136.013458,202.656738 
	C134.873688,203.360138 133.765533,203.712357 132.302277,204.089905 
	C132.155518,202.404434 132.363846,200.693619 132.922913,199.102036 
	C133.484528,199.122635 133.695389,199.024002 133.906250,198.925385 
	C133.906250,198.925369 133.942093,198.904099 133.940033,198.879883 
	C134.640350,200.005615 135.342697,201.155594 136.013458,202.656738 
z"/>
<path fill="#626262" opacity="1.000000" stroke="none" 
	d="
M117.017593,231.983032 
	C117.751503,231.565750 118.485405,231.148453 119.839386,230.881958 
	C121.640228,231.034943 122.820999,231.037140 124.001762,231.039337 
	C124.001762,231.039337 124.004593,230.991425 124.004776,231.320648 
	C124.335617,232.433640 124.666267,233.217438 124.996925,234.001221 
	C124.996925,234.001221 125.000305,234.000000 124.686478,234.049728 
	C123.578835,234.386536 122.785019,234.673599 121.991211,234.960663 
	C121.991211,234.960678 121.994263,235.009888 121.992531,234.743591 
	C120.333061,233.645874 118.675331,232.814453 117.017593,231.983032 
z"/>
<path fill="#959595" opacity="1.000000" stroke="none" 
	d="
M122.055634,235.309753 
	C122.785019,234.673599 123.578835,234.386536 124.686256,234.047897 
	C125.624573,234.875641 126.249283,235.754944 126.938721,236.967224 
	C127.003448,237.300217 127.033783,237.619949 127.034775,237.780121 
	C125.397194,237.179825 123.758629,236.419342 122.055634,235.309753 
z"/>
<path fill="#959595" opacity="1.000000" stroke="none" 
	d="
M116.828995,232.226074 
	C118.675331,232.814453 120.333061,233.645874 122.014923,234.733276 
	C119.934502,234.990784 117.829964,234.992310 115.347260,234.957428 
	C115.526192,234.103714 116.083298,233.286407 116.828995,232.226074 
z"/>
<path fill="#535353" opacity="1.000000" stroke="none" 
	d="
M117.394913,258.937134 
	C117.879417,257.144775 118.689629,255.235092 119.825836,253.169327 
	C119.341431,254.948746 118.531029,256.884277 117.394913,258.937134 
z"/>
<path fill="#919191" opacity="1.000000" stroke="none" 
	d="
M123.979958,230.792725 
	C122.820999,231.037140 121.640228,231.034943 120.181137,230.870087 
	C119.902809,230.707397 119.935440,230.375183 119.955826,230.210083 
	C121.303520,230.212051 122.630836,230.379089 123.979958,230.792725 
z"/>
<path fill="#888888" opacity="1.000000" stroke="none" 
	d="
M107.210609,205.475616 
	C106.626137,206.089096 105.824615,206.492523 105.023094,206.895950 
	C104.892197,206.498734 104.761299,206.101517 104.630409,205.704285 
	C105.418121,205.558044 106.205841,205.411804 107.210609,205.475616 
z"/>
<path fill="#959595" opacity="1.000000" stroke="none" 
	d="
M125.001991,226.574966 
	C124.471924,226.742264 123.942566,226.509613 123.217178,226.169922 
	C123.445404,225.092773 123.869667,224.122696 124.618546,223.060760 
	C124.963013,224.037628 124.982857,225.106323 125.001991,226.574966 
z"/>
<path fill="#888888" opacity="1.000000" stroke="none" 
	d="
M99.674591,266.107086 
	C99.496391,267.045227 99.022331,268.115570 98.268265,269.096741 
	C98.451752,268.084839 98.915253,267.162048 99.674591,266.107086 
z"/>
<path fill="#8E8E8E" opacity="1.000000" stroke="none" 
	d="
M154.992981,175.006241 
	C155.452225,175.358109 155.918457,175.703735 156.384674,176.049362 
	C156.276596,176.165451 156.168503,176.281540 156.060410,176.397614 
	C155.741043,176.095383 155.421677,175.793152 155.057373,175.238464 
	C155.012421,174.986008 154.999969,175.000000 154.992981,175.006241 
z"/>
<path fill="#888888" opacity="1.000000" stroke="none" 
	d="
M108.854561,198.869110 
	C109.278442,198.395370 109.797958,198.009460 110.317482,197.623566 
	C110.095520,198.073166 109.873550,198.522751 109.394249,199.054886 
	C109.136909,199.137436 108.950195,198.956940 108.854561,198.869110 
z"/>
<path fill="#626262" opacity="1.000000" stroke="none" 
	d="
M128.317627,247.680267 
	C128.658325,248.117096 128.999023,248.553925 129.339722,248.990768 
	C128.879089,248.870193 128.418472,248.749603 128.011200,248.279266 
	C128.064545,247.929489 128.317612,247.680267 128.317627,247.680267 
z"/>
<path fill="#888888" opacity="1.000000" stroke="none" 
	d="
M100.025925,264.343018 
	C100.152016,264.568573 100.251671,265.122223 100.160294,265.831543 
	C99.979324,265.548553 99.989403,265.109833 100.025925,264.343018 
z"/>
<path fill="#7B7B7B" opacity="1.000000" stroke="none" 
	d="
M96.007133,287.722290 
	C95.853973,287.965607 95.671539,287.980499 95.216843,287.958740 
	C95.131126,287.540833 95.317665,287.159668 95.504211,286.778473 
	C95.662094,287.016937 95.819984,287.255432 96.007133,287.722290 
z"/>
<path fill="#6F6F6F" opacity="1.000000" stroke="none" 
	d="
M115.921158,274.925964 
	C116.040901,274.423401 116.295349,274.039948 116.549789,273.656464 
	C116.594910,274.077515 116.640038,274.498596 116.505379,275.101257 
	C116.325592,275.282837 116.055870,275.045044 115.921158,274.925964 
z"/>
<path fill="#8E8E8E" opacity="1.000000" stroke="none" 
	d="
M66.219147,183.176788 
	C66.006645,183.524582 65.794151,183.872391 65.581665,184.220200 
	C65.546593,183.858643 65.511520,183.497086 65.737953,183.063293 
	C65.999458,182.991058 66.219147,183.176788 66.219147,183.176788 
z"/>
<path fill="#535353" opacity="1.000000" stroke="none" 
	d="
M116.366043,260.944092 
	C116.238892,260.495209 116.415367,259.938324 116.832535,259.203064 
	C116.938721,259.628540 116.804199,260.232300 116.366043,260.944092 
z"/>
<path fill="#8E8E8E" opacity="1.000000" stroke="none" 
	d="
M65.890160,182.897552 
	C66.010994,182.457062 66.241119,182.110092 66.471245,181.763123 
	C66.500122,182.130478 66.528992,182.497818 66.388504,183.020981 
	C66.219147,183.176788 65.999458,182.991058 65.890160,182.897552 
z"/>
<path fill="#6F6F6F" opacity="1.000000" stroke="none" 
	d="
M141.211472,206.853241 
	C140.932693,206.589081 140.870071,206.124954 140.684326,205.329041 
	C140.793121,204.996262 141.025055,204.995270 141.604523,204.999405 
	C141.777237,205.554092 141.602432,206.103668 141.211472,206.853241 
z"/>
<path fill="#6F6F6F" opacity="1.000000" stroke="none" 
	d="
M130.007339,230.013611 
	C130.018982,230.028381 130.248566,229.653000 130.248566,229.653000 
	C130.248566,229.653000 130.198029,229.930313 130.082428,229.952393 
	C129.966827,229.974457 129.995697,229.998856 130.007339,230.013611 
z"/>
<path fill="#919191" opacity="1.000000" stroke="none" 
	d="
M133.734650,198.921021 
	C133.695389,199.024002 133.484528,199.122635 133.247650,199.050903 
	C133.221664,198.880524 133.563065,198.916672 133.734650,198.921021 
z"/>
<path fill="#7B7B7B" opacity="1.000000" stroke="none" 
	d="
M96.598465,284.440918 
	C96.670258,284.547119 96.396980,284.599731 96.396980,284.599731 
	C96.396980,284.599731 96.526665,284.334686 96.598465,284.440918 
z"/>
<path fill="#7B7B7B" opacity="1.000000" stroke="none" 
	d="
M97.538483,282.565399 
	C97.473717,282.611633 97.603241,282.519165 97.538483,282.565399 
z"/>
<path fill="#626262" opacity="1.000000" stroke="none" 
	d="
M125.846291,246.169556 
	C125.518532,246.080902 125.252380,245.901077 124.926834,245.418213 
	C124.805832,245.206329 125.085526,244.913910 125.228317,244.765869 
	C125.658485,244.773651 125.905853,244.977966 126.099884,245.574341 
	C126.086578,245.917953 125.846291,246.169556 125.846291,246.169556 
z"/>
<path fill="#626262" opacity="1.000000" stroke="none" 
	d="
M126.850479,247.161636 
	C126.550011,247.030884 126.299751,246.835754 125.972992,246.372894 
	C125.846291,246.169556 126.086578,245.917953 126.210098,245.790222 
	C126.607590,245.829361 126.853058,246.030960 127.078194,246.592361 
	C127.086365,246.917450 126.850479,247.161636 126.850479,247.161636 
z"/>
<path fill="#626262" opacity="1.000000" stroke="none" 
	d="
M127.204559,246.795609 
	C127.611214,246.822906 127.854370,247.026230 128.184921,247.481995 
	C128.317612,247.680267 128.064545,247.929489 127.936920,248.054474 
	C127.502869,248.056549 127.253258,247.861084 126.955467,247.377350 
	C126.850479,247.161636 127.086365,246.917450 127.204559,246.795609 
z"/>
<path fill="#F6F6F6" opacity="1.000000" stroke="none" 
	d="
M215.924225,252.247650 
	C216.361801,252.246613 216.414581,252.509796 216.043427,252.893646 
	C215.878952,252.817032 215.852249,252.649567 215.924225,252.247650 
z"/>
<path fill="#E3E3E4" opacity="1.000000" stroke="none" 
	d="
M332.088135,254.806274 
	C330.655029,255.600555 329.221954,256.394836 327.286377,257.467621 
	C326.666168,257.085205 325.186829,256.173065 323.263672,254.904800 
	C322.873444,254.363632 322.927032,254.178558 322.980621,253.993469 
	C326.077637,254.438568 326.985718,253.076447 326.814209,250.045868 
	C326.429657,243.251740 326.348755,236.440201 326.162720,229.635254 
	C326.121429,228.124603 326.156677,226.611862 326.156677,225.100067 
	C326.685669,225.055328 327.214661,225.010574 327.743652,224.965820 
	C328.132263,227.060852 328.793457,229.147614 328.857330,231.252502 
	C329.033478,237.059052 328.888855,242.874969 329.035187,248.683044 
	C329.071533,250.126022 329.729462,251.553314 330.584564,253.237671 
	C331.407684,253.927109 331.747894,254.366684 332.088135,254.806274 
z"/>
<path fill="#1F1C29" opacity="1.000000" stroke="none" 
	d="
M322.634033,254.008606 
	C322.927032,254.178558 322.873444,254.363632 322.896301,254.827423 
	C322.147949,255.428543 321.323242,255.750946 320.217590,256.054260 
	C319.936646,256.035156 319.994446,256.003906 319.978943,256.032898 
	C320.738159,255.382507 321.512817,254.703125 322.634033,254.008606 
z"/>
<path fill="#1F1C29" opacity="1.000000" stroke="none" 
	d="
M332.424500,254.727936 
	C331.747894,254.366684 331.407684,253.927109 331.024506,253.270706 
	C331.789368,252.950302 332.597168,252.846710 333.404968,252.743134 
	C333.190277,253.378632 332.975586,254.014114 332.424500,254.727936 
z"/>
<path fill="#1F1C29" opacity="1.000000" stroke="none" 
	d="
M340.300934,251.162842 
	C340.388245,251.582260 340.136475,251.998993 339.916199,252.780701 
	C339.259003,253.209198 338.570312,253.272690 337.881592,253.336182 
	C338.575012,252.610840 339.268463,251.885498 340.300934,251.162842 
z"/>
<path fill="#E3E3E4" opacity="1.000000" stroke="none" 
	d="
M299.294769,244.855865 
	C299.001190,244.298203 299.005188,243.914322 299.012695,243.242554 
	C300.296478,243.502167 301.576721,244.049667 302.856934,244.597168 
	C302.798950,244.938324 302.740967,245.279480 302.682953,245.620621 
	C301.652740,245.423645 300.622528,245.226654 299.294769,244.855865 
z"/>
<path fill="#E3E3E4" opacity="1.000000" stroke="none" 
	d="
M298.754517,240.716583 
	C298.484009,240.958786 298.235107,240.914597 297.617615,240.776382 
	C297.758057,240.598312 298.267090,240.514267 298.754517,240.716583 
z"/>
<path fill="#444444" opacity="1.000000" stroke="none" 
	d="
M301.226318,267.899933 
	C301.273438,263.483765 302.977539,261.903351 309.244568,261.190887 
	C306.127472,263.942871 303.846344,265.956818 301.226318,267.899933 
z"/>
<path fill="#1F1C29" opacity="1.000000" stroke="none" 
	d="
M303.835266,271.149292 
	C303.225433,271.157867 302.838440,270.890961 302.451477,270.624023 
	C302.945679,270.448700 303.439880,270.273376 304.200378,270.196350 
	C304.330475,270.487701 304.194305,270.680756 303.835266,271.149292 
z"/>
<path fill="#1F1C29" opacity="1.000000" stroke="none" 
	d="
M374.957642,277.558685 
	C379.012726,272.349579 382.950714,267.520416 387.557343,261.871338 
	C387.829987,271.452545 384.568665,278.109589 379.148407,280.241974 
	C376.982880,281.093872 374.353302,282.285889 374.957642,277.558685 
z"/>
<path fill="#A5A5A5" opacity="1.000000" stroke="none" 
	d="
M171.007507,252.007385 
	C170.975006,252.620148 170.935242,253.226044 170.895493,253.831924 
	C170.773056,253.835037 170.650620,253.838165 170.528183,253.841293 
	C170.528183,253.323059 170.528183,252.804825 170.755890,252.138000 
	C170.983612,251.989395 171.000275,252.000488 171.007507,252.007385 
z"/>
<path fill="#A5A5A5" opacity="1.000000" stroke="none" 
	d="
M192.477173,249.390915 
	C192.556427,249.325012 192.572922,249.573380 192.572922,249.573380 
	C192.572922,249.573380 192.397919,249.456818 192.477173,249.390915 
z"/>
<path fill="#959595" opacity="1.000000" stroke="none" 
	d="
M115.542404,245.795044 
	C115.682716,245.275543 116.117599,244.729324 116.808701,244.083923 
	C116.655594,244.579285 116.246277,245.173813 115.542404,245.795044 
z"/>
<path fill="#535353" opacity="1.000000" stroke="none" 
	d="
M112.150360,257.597412 
	C111.987465,257.628693 111.894554,257.584534 111.801651,257.540344 
	C111.941223,257.534210 112.080788,257.528076 112.150360,257.597412 
z"/>
<path fill="#959595" opacity="1.000000" stroke="none" 
	d="
M122.774048,226.019089 
	C122.752014,226.132965 122.459068,226.244446 122.063881,226.195770 
	C122.142143,226.029327 122.322639,226.023010 122.774048,226.019089 
z"/>
<path fill="#888888" opacity="1.000000" stroke="none" 
	d="
M108.048126,276.493774 
	C104.867722,278.190491 104.455032,275.202728 103.053200,273.327789 
	C103.157280,273.011963 103.331978,273.011292 103.993500,272.997528 
	C104.480339,272.984436 104.927055,272.926697 104.927055,272.926697 
	C105.957550,274.003815 106.988045,275.080902 108.048126,276.493774 
z"/>
<path fill="#888888" opacity="1.000000" stroke="none" 
	d="
M101.579742,272.934082 
	C101.369156,273.065430 100.871651,273.206512 100.259598,273.134369 
	C100.527641,272.928711 100.910240,272.936279 101.579742,272.934082 
z"/>
<path fill="#6F6F6F" opacity="1.000000" stroke="none" 
	d="
M104.834335,272.802124 
	C104.927055,272.926697 104.480339,272.984436 104.255455,272.990570 
	C104.189240,272.635468 104.426254,272.529083 104.834335,272.802124 
z"/>
<path fill="#888888" opacity="1.000000" stroke="none" 
	d="
M104.510246,267.513916 
	C104.484367,267.525818 104.536125,267.502014 104.510246,267.513916 
z"/>
<path fill="#6F6F6F" opacity="1.000000" stroke="none" 
	d="
M140.229492,204.726868 
	C139.111588,204.545624 137.744858,204.083893 136.194839,203.319977 
	C137.334610,203.494003 138.657639,203.970200 140.229492,204.726868 
z"/>
<path fill="#A5A5A5" opacity="1.000000" stroke="none" 
	d="
M145.010132,186.705841 
	C144.864029,186.199371 144.719086,185.302933 144.790039,184.195419 
	C145.007736,184.761520 145.009521,185.538712 145.010132,186.705841 
z"/>
<path fill="#A5A5A5" opacity="1.000000" stroke="none" 
	d="
M159.002106,166.002136 
	C158.831863,166.325684 158.659531,166.647079 158.487198,166.968491 
	C158.547440,166.720779 158.607666,166.473083 158.831818,166.111298 
	C158.995728,165.997208 159.000000,166.000000 159.002106,166.002136 
z"/>
<path fill="#888888" opacity="1.000000" stroke="none" 
	d="
M100.491989,278.466858 
	C100.520309,278.454132 100.463676,278.479553 100.491989,278.466858 
z"/>
<path fill="#A5A5A5" opacity="1.000000" stroke="none" 
	d="
M93.989716,202.799500 
	C92.878700,200.657242 90.064102,197.810883 95.650818,197.079758 
	C95.425514,198.907333 94.839859,200.763748 93.989716,202.799500 
z"/>
<path fill="#A5A5A5" opacity="1.000000" stroke="none" 
	d="
M92.916397,205.053101 
	C92.143044,205.005707 91.651718,204.703018 91.160400,204.400330 
	C91.810616,203.848969 92.460831,203.297607 93.457474,202.705536 
	C93.602081,203.375839 93.400253,204.086823 92.916397,205.053101 
z"/>
<path fill="#959595" opacity="1.000000" stroke="none" 
	d="
M125.344803,233.973862 
	C124.666267,233.217438 124.335617,232.433640 123.982391,231.329285 
	C125.227989,231.331238 126.496155,231.653763 127.764328,231.976273 
	C127.073769,232.633011 126.383224,233.289749 125.344803,233.973862 
z"/>
</svg>